<svg width="140" height="56" viewBox="0 0 140 56" fill="none" xmlns="http://www.w3.org/2000/svg">
<rect width="140" height="56" rx="16" fill="#1E2F2B"/>
<path d="M26.3452 46.9404L26.5626 47.2567L26.5116 46.5022L26.4492 46.1996L26.3547 45.933C26.3566 46.2696 26.3566 46.6039 26.3452 46.9404Z" fill="#10295F"/>
<path d="M26.3472 46.7734H26.3755V46.9248H26.3472V46.7734Z" fill="#10295F"/>
<path d="M26.5248 47.0059L26.5627 47.2566L26.6591 46.4096L26.4379 46.4277L26.5248 47.0059Z" fill="#4D9EC8"/>
<path d="M38.8353 13.5945C38.9955 13.3268 39.1228 13.0332 39.2135 12.7226C39.3033 12.4187 39.3197 12.0907 39.2607 11.7762C39.1378 11.1528 38.7238 10.6829 38.2813 10.3351C37.8227 9.99115 37.3314 9.71363 36.8179 9.50839C36.305 9.29163 35.7816 9.11211 35.2505 8.97081C34.7212 8.82423 34.1852 8.71413 33.6453 8.64103C33.1045 8.56649 32.5581 8.51454 32.0098 8.46711L31.1798 8.38805L30.9661 8.36321L30.8527 8.34288L30.7865 8.32707C30.7716 8.32495 30.7569 8.32039 30.743 8.31352C30.7163 8.30658 30.6908 8.29436 30.6674 8.27737L30.6372 8.25479C30.6258 8.25479 30.6277 8.25479 30.5748 8.18928C30.535 8.13223 30.5106 8.06216 30.5048 7.98826C30.5029 7.93714 30.5097 7.88609 30.525 7.8383C30.5403 7.7905 30.5637 7.74697 30.5937 7.71043C30.6258 7.67655 30.6031 7.69688 30.5804 7.72624C30.5669 7.74519 30.5549 7.76561 30.5445 7.78723C30.5387 7.79957 30.5336 7.81241 30.5294 7.82563C30.5286 7.83916 30.5286 7.85275 30.5294 7.86628V7.92275C30.5048 7.8717 30.4756 7.82398 30.4424 7.78045C30.2714 7.5558 30.0813 7.35294 29.8752 7.17511C29.6639 6.98501 29.4443 6.80858 29.2172 6.64656C28.7648 6.31697 28.2875 6.03868 27.7916 5.81535C27.2989 5.59396 26.7862 5.44234 26.2639 5.3636C25.7345 5.27551 25.19 5.2213 24.6417 5.16709C24.0934 5.11288 23.5545 5.06318 23.0157 5.04286C22.7472 5.04286 22.4787 5.0293 22.2178 5.04286C22.0892 5.04286 21.9588 5.06093 21.8396 5.079L21.7659 5.09255C21.7186 5.11062 21.7508 5.09255 21.7659 5.09255L21.8075 5.06319C21.8075 5.06319 21.8283 5.04512 21.8491 5.02253C21.868 5.00293 21.8851 4.98097 21.9001 4.95702C21.9374 4.89605 21.9626 4.82577 21.9739 4.75148C21.9853 4.68669 21.9853 4.61976 21.9739 4.55497C21.9628 4.50479 21.9456 4.45683 21.9228 4.41267C21.9065 4.38117 21.8868 4.35232 21.8642 4.32684C21.8452 4.30376 21.8236 4.28399 21.7999 4.26811L21.7735 4.25004H21.7564L21.817 4.26811C22.1184 4.33774 22.4117 4.45075 22.6905 4.60466C22.9901 4.7763 23.2591 5.01561 23.4827 5.30939C23.5959 5.46028 23.6943 5.62626 23.7757 5.80405L23.9648 6.24225C24.0824 6.49323 24.2253 6.72611 24.3902 6.93568C24.7358 7.36728 25.1397 7.72618 25.5852 7.99729L26.8236 8.78333L25.432 9.00921C24.6341 9.14429 23.8432 9.33282 23.0629 9.57389C22.2817 9.81335 21.5133 10.109 20.7619 10.4593C20.0097 10.8033 19.2737 11.1962 18.5573 11.6361C17.8459 12.0842 17.1582 12.5843 16.4984 13.1337C13.8453 15.3471 11.7167 18.3429 10.3195 21.8298C9.60929 23.5611 9.11255 25.406 8.84472 27.3073C8.59314 29.2215 8.54802 31.1663 8.71048 33.0942C8.87065 35.0343 9.24249 36.941 9.81655 38.7659C10.3974 40.5991 11.1713 42.3365 12.1194 43.9361C11.0669 42.4077 10.1953 40.7136 9.52916 38.9014C9.20293 37.9868 8.92384 37.0491 8.69347 36.0938C8.46939 35.1333 8.29885 34.1561 8.18297 33.1687C7.94822 31.184 7.93932 29.1706 8.1565 27.183C8.26441 26.183 8.44213 25.1955 8.68779 24.2309C8.92941 23.2676 9.22698 22.3257 9.57832 21.412C10.9805 17.7214 13.1854 14.5476 15.9633 12.2211C16.6525 11.6416 17.3711 11.1135 18.1149 10.64C18.8617 10.1732 19.6314 9.76061 20.4197 9.40449C21.2064 9.04707 22.0101 8.74539 22.8266 8.50099C23.6426 8.25446 24.4695 8.06291 25.3034 7.92727L25.1503 8.94596C24.6138 8.61459 24.13 8.17349 23.7209 7.64267C23.5131 7.36795 23.3335 7.06465 23.1858 6.73917L22.9968 6.30323C22.948 6.19065 22.8883 6.08528 22.819 5.98927C22.6727 5.79236 22.4962 5.63061 22.2991 5.51267C22.0782 5.38688 21.8451 5.29431 21.6052 5.23711C21.5674 5.22356 21.5333 5.21678 21.4672 5.18967C21.4464 5.17838 21.4369 5.17838 21.4029 5.15805L21.3518 5.12643C21.3212 5.10381 21.2926 5.0773 21.2668 5.04737C21.2417 5.01891 21.2195 4.98707 21.2006 4.95251C21.1751 4.90377 21.1566 4.85034 21.1457 4.79439C21.1334 4.72515 21.1334 4.65357 21.1457 4.58433C21.1584 4.50313 21.1855 4.42611 21.2252 4.35846C21.2432 4.33125 21.2627 4.30559 21.2838 4.28166L21.3367 4.23197L21.401 4.18905C21.4645 4.1534 21.532 4.12905 21.6014 4.11677C21.6487 4.11677 21.6903 4.0987 21.7319 4.09193C21.8926 4.0716 22.0363 4.06256 22.1837 4.05804C22.473 4.05804 22.751 4.05804 23.0384 4.07611C23.6056 4.10774 24.1596 4.17098 24.706 4.24326C25.2524 4.31554 25.8083 4.38782 26.3679 4.4985C26.9383 4.60361 27.4966 4.78703 28.0317 5.04512C28.5597 5.30302 29.0662 5.6199 29.5443 5.99153C29.7853 6.17722 30.0176 6.37855 30.2401 6.59461C30.4735 6.81603 30.6871 7.06583 30.8773 7.34C30.934 7.42128 30.9828 7.50993 31.0229 7.60427C31.0549 7.67465 31.0766 7.75104 31.0871 7.83014C31.0893 7.86171 31.0893 7.89344 31.0871 7.92501V7.97696C31.0845 8.00074 31.0801 8.02418 31.0739 8.04698L31.0512 8.11475C31.0401 8.14161 31.0261 8.16665 31.0096 8.18928C30.985 8.22317 30.9586 8.24575 30.9869 8.21639C31.0153 8.18703 31.0928 7.99052 31.072 7.95212C31.0702 7.90317 31.0588 7.85542 31.0388 7.81267C31.0188 7.76992 30.9907 7.73336 30.9567 7.70591L30.9378 7.69236L30.9113 7.67655H30.9453L31.0361 7.69462L31.2252 7.7285L32.0401 7.84144C32.5884 7.91598 33.1405 7.98826 33.6907 8.09442C34.2424 8.20019 34.7885 8.34424 35.3261 8.52584C35.8651 8.70082 36.3949 8.91428 36.9125 9.16506C37.4345 9.41424 37.9296 9.73729 38.3872 10.1273C38.6249 10.3246 38.8393 10.5594 39.0244 10.8252C39.2065 11.0928 39.3282 11.4116 39.378 11.7513C39.4224 12.0877 39.3863 12.4322 39.274 12.7452C39.1622 13.0517 39.0145 13.3377 38.8353 13.5945Z" fill="#10295F"/>
<path d="M38.8354 13.5946C39.0051 13.3373 39.1414 13.051 39.24 12.7453C39.3399 12.4472 39.3662 12.1211 39.3156 11.8057C39.2059 11.18 38.8051 10.6989 38.3702 10.333C37.9237 9.97211 37.4425 9.67637 36.9371 9.45209C36.4318 9.21795 35.9138 9.02476 35.3867 8.87385C34.3355 8.55762 33.254 8.47857 32.1573 8.3837C31.8813 8.36111 31.6147 8.34304 31.3198 8.30238C31.2819 8.30238 31.2422 8.30238 31.1912 8.27754C31.1339 8.26309 31.0802 8.23293 31.0343 8.18945C30.9865 8.14296 30.9521 8.07977 30.9359 8.00875C30.9244 7.96164 30.9218 7.91206 30.9283 7.8636C30.9349 7.81515 30.9504 7.76905 30.9738 7.72866C31.1004 7.56378 30.9738 7.72866 30.9738 7.74447C30.9615 7.76775 30.9538 7.79398 30.9511 7.82127V7.88678C30.9434 7.86796 30.9345 7.84984 30.9246 7.83257C30.8553 7.72102 30.7774 7.61742 30.692 7.52312C30.303 7.10314 29.874 6.73925 29.4139 6.43892C28.9549 6.12554 28.4718 5.86535 27.9713 5.66192C27.4711 5.4688 26.9552 5.33934 26.4322 5.27567C25.8991 5.19887 25.3526 5.14466 24.8081 5.09271C24.2636 5.04076 23.7247 4.99785 23.1897 4.98881C22.9231 4.98881 22.6546 4.98881 22.405 5.00914L22.2292 5.03173L22.1649 5.04754L22.2159 5.01817L22.2386 4.99785C22.2595 4.98197 22.278 4.96213 22.2935 4.93912C22.3218 4.90125 22.3454 4.85864 22.3634 4.81263C22.3873 4.74635 22.3989 4.6747 22.3975 4.60257C22.3963 4.53852 22.3841 4.47545 22.3615 4.41735C22.3478 4.38196 22.3307 4.34861 22.3105 4.31796C22.2872 4.28323 22.2599 4.25279 22.2292 4.22761L22.2027 4.20955H22.1743L22.2575 4.23213L22.4693 4.29312C23.1118 4.46095 23.681 4.90258 24.0707 5.53543C24.1597 5.69146 24.2388 5.85531 24.3071 6.02557C24.3714 6.17917 24.4243 6.30114 24.4867 6.42311C24.6127 6.66848 24.7618 6.89583 24.931 7.10073C25.2915 7.52015 25.7026 7.87266 26.1505 8.14653L27.3852 8.93031L25.9993 9.15619C25.2027 9.28975 24.413 9.47677 23.634 9.71636C23.2445 9.83155 22.8607 9.97385 22.475 10.1094C22.0893 10.2449 21.7187 10.4075 21.3405 10.5882C19.8383 11.261 18.4078 12.1435 17.0789 13.2174C14.4177 15.395 12.2625 18.3435 10.8149 21.7871C10.0797 23.4954 9.55373 25.321 9.25317 27.2081C8.9546 29.1061 8.87445 31.0439 9.01494 32.9678C9.15965 34.9046 9.49928 36.8135 10.0265 38.6531C10.5452 40.5076 11.2479 42.2813 12.1195 43.9363C11.1418 42.3455 10.341 40.6098 9.7372 38.7728C8.7972 36.0023 8.32616 33.0366 8.3513 30.0473C8.36668 29.0478 8.43996 28.0509 8.57062 27.0635C8.5952 26.8128 8.64436 26.5711 8.68406 26.3249C8.72377 26.0787 8.76158 25.8325 8.81074 25.5885C8.90528 25.0961 9.0225 24.615 9.15107 24.1384C9.40627 23.1835 9.71776 22.2513 10.0832 21.3489C10.4465 20.4454 10.8583 19.571 11.3159 18.731C11.7696 17.8861 12.2712 17.0794 12.8172 16.3164C13.9149 14.7969 15.1711 13.4518 16.5551 12.3139C16.7234 12.1648 16.9011 12.0293 17.0789 11.8983L17.612 11.4962C17.9732 11.2387 18.3438 11.0016 18.7124 10.7599C19.4584 10.3001 20.2268 9.89433 21.0134 9.54469C21.4029 9.35722 21.8057 9.21492 22.2027 9.05229C22.5998 8.88966 23.0063 8.76769 23.4128 8.65023C24.2264 8.40628 25.0508 8.21625 25.882 8.08103L25.7308 9.09972C25.1986 8.7731 24.714 8.34598 24.2957 7.83482C24.078 7.57003 23.8876 7.27505 23.7285 6.95617C23.6491 6.79806 23.5792 6.62414 23.5224 6.48184C23.474 6.3558 23.4177 6.23424 23.3542 6.11818C23.0877 5.68038 22.6962 5.37426 22.2538 5.2576L22.0647 5.20113L21.9475 5.16499L21.8548 5.12885L21.8189 5.08594L21.7962 5.07238L21.7603 5.04302C21.7217 5.01436 21.6878 4.97764 21.6601 4.9346C21.6361 4.90131 21.6164 4.86402 21.6015 4.82392C21.5779 4.76045 21.5644 4.69227 21.5618 4.62289C21.5607 4.54524 21.5736 4.46823 21.5996 4.39702C21.6182 4.3464 21.6438 4.29984 21.6752 4.25924C21.6952 4.23413 21.7167 4.21073 21.7395 4.18922L21.7754 4.16211C21.8059 4.13943 21.8382 4.12051 21.8718 4.10564C21.9134 4.08983 21.9437 4.07854 21.9701 4.07176C21.9966 4.06499 22.0666 4.04917 22.1082 4.0424C22.1914 4.02884 22.267 4.02207 22.3426 4.01529C22.6414 3.99271 22.9231 3.99722 23.2067 4.01529C23.7739 4.03788 24.3279 4.09435 24.8762 4.16663C25.4245 4.23891 25.9747 4.30667 26.5306 4.3925C27.0993 4.48339 27.6588 4.64386 28.2001 4.87136C28.7361 5.11017 29.252 5.4089 29.741 5.76356C30.2359 6.11639 30.6941 6.53794 31.1061 7.01942C31.219 7.1524 31.3197 7.29929 31.4067 7.45762C31.4331 7.50988 31.4565 7.56422 31.4767 7.62024C31.5113 7.7162 31.5231 7.82173 31.5107 7.92517C31.5027 7.972 31.49 8.0175 31.4729 8.0607C31.4729 8.09232 31.3273 8.25495 31.4502 8.0991C31.4718 8.06032 31.4865 8.01664 31.4933 7.97078C31.5002 7.92492 31.499 7.87787 31.4899 7.83257C31.4762 7.76567 31.4443 7.7061 31.3992 7.66316C31.3198 7.59766 31.3349 7.62476 31.3368 7.62024L31.4105 7.63832C31.6601 7.68575 31.9418 7.71511 32.2122 7.75125C32.7605 7.82127 33.3107 7.89129 33.859 7.99294C34.412 8.09027 34.9586 8.23444 35.4945 8.42436C36.0302 8.60839 36.5551 8.83476 37.0657 9.10198C37.5793 9.36945 38.0638 9.71078 38.5083 10.1184C38.733 10.3255 38.9333 10.5679 39.1038 10.839C39.2794 11.1116 39.3934 11.4336 39.4347 11.7741C39.4697 12.1117 39.4232 12.4542 39.3005 12.7611C39.1807 13.0648 39.0239 13.3457 38.8354 13.5946Z" fill="#4D9EC8"/>
<path d="M40 48.377C37.9126 48.1526 35.8154 48.0847 33.7209 48.1737C33.0157 48.1785 32.3134 48.2808 31.6279 48.4786C29.6956 49.0727 28.3286 50.4347 27.7311 51.04C27.4323 51.3426 27.1464 51.663 26.8746 52H26.8444C26.5726 51.663 26.2867 51.3426 25.9879 51.04C25.3904 50.4347 24.0234 49.0727 22.0911 48.4786C21.4056 48.2808 20.7033 48.1785 19.9981 48.1737C17.9035 48.0847 15.8064 48.1526 13.719 48.377" stroke="#4D9EC8" stroke-miterlimit="10"/>
<path d="M40 46.8725C37.9126 46.6481 35.8154 46.5802 33.7209 46.6692C33.0157 46.673 32.3132 46.7753 31.6279 46.9742C30.6958 47.2588 28.9658 47.7557 27.7311 49.5356C27.356 50.0766 27.0572 50.6869 26.8463 51.3426C26.6445 50.6884 26.3545 50.078 25.9879 49.5356C24.7797 47.7602 23.0497 47.2768 22.0911 46.9742C21.4058 46.7753 20.7033 46.673 19.9981 46.6692C17.9035 46.5802 15.8064 46.6481 13.719 46.8725" stroke="#4D9EC8" stroke-miterlimit="10"/>
<path d="M25.6192 18.4803L25.8082 18.871V19.0133H25.4717L25.6192 18.4803Z" fill="#10295F"/>
<path d="M11.4198 42.6149C11.1986 41.9373 10.9717 41.2778 10.7713 40.6001C10.563 39.9223 10.3875 39.2308 10.2457 38.5289C10.1069 37.823 10.0121 37.1057 9.96205 36.3831C9.90059 35.6587 9.89489 34.929 9.94503 34.2034C9.99477 33.4768 10.0902 32.7558 10.2305 32.0463C10.291 31.6894 10.3837 31.3416 10.4612 30.9892C10.5387 30.6368 10.6503 30.2958 10.7524 29.9547C11.1724 28.5799 11.7359 27.2738 12.4294 26.0674C13.1286 24.8546 13.9668 23.7651 14.9195 22.8306C15.8801 21.9053 16.9378 21.1338 18.0657 20.5357C18.6308 20.2403 19.2112 19.9883 19.8032 19.7813C20.395 19.5735 20.9717 19.3951 21.5692 19.2212C22.7585 18.8847 23.9667 18.6515 25.1842 18.5232L25.621 18.478V19.0066L25.6645 28.4188L25.6815 37.8309V37.7225L26.8329 44.5529L25.9027 44.6456L26.0691 38.1472L26.2998 38.6396C26.1519 38.5326 26.0391 38.3684 25.9802 38.1743C25.9345 38.0256 25.9164 37.8668 25.9273 37.709C25.9371 37.5417 25.9805 37.3798 26.054 37.2369C26.1022 37.1495 26.163 37.0731 26.2336 37.011C26.326 36.9275 26.4359 36.876 26.5512 36.8619C26.6195 36.8528 26.6887 36.8582 26.7554 36.8777C26.9072 36.9213 27.0412 37.0277 27.1336 37.1782C27.2173 37.3112 27.2736 37.466 27.2981 37.6299C27.3231 37.81 27.3047 37.9949 27.2451 38.163C27.1909 38.3145 27.1073 38.4484 27.0012 38.5537L27.1638 38.102L27.5136 45.0521L26.6571 45.007L27.6176 37.779V37.8535C27.6176 33.1463 27.6327 28.4413 27.7121 23.7319L27.7462 21.9655C27.7462 21.6674 27.7594 21.3783 27.7745 21.062C27.7916 20.7428 27.8437 20.4276 27.9296 20.1247C28.0147 19.8175 28.1426 19.5296 28.3077 19.2731C28.477 19.0193 28.6816 18.8023 28.9127 18.6316C29.1319 18.4703 29.3614 18.3299 29.5991 18.2115C29.8347 18.0917 30.0773 17.9928 30.3251 17.9156C30.8114 17.7852 31.303 17.6849 31.798 17.6152C32.282 17.5271 32.7603 17.4187 33.2368 17.2832C34.19 17.0262 35.1174 16.6475 36.0029 16.1538L36.0389 16.1425H36.0275L36.054 16.1289L36.1031 16.0996L36.2052 16.0408L36.4056 15.9189C36.538 15.8376 36.6704 15.754 36.7989 15.6659C37.06 15.4913 37.3125 15.299 37.5552 15.0899C38.0417 14.6694 38.4792 14.1734 38.856 13.615C38.4994 14.1972 38.0798 14.7205 37.6081 15.1712C37.3714 15.3968 37.124 15.6057 36.867 15.7969C36.7384 15.894 36.6098 15.9866 36.4775 16.077L36.279 16.2057L36.1788 16.2712L36.1277 16.3029L36.1031 16.3187C36.0836 16.331 36.0625 16.3394 36.0407 16.3435H36.0786C35.1953 16.8867 34.2653 17.3139 33.3049 17.6174C32.8259 17.7756 32.3425 17.9088 31.8547 18.0172C31.3669 18.1302 30.8791 18.207 30.4272 18.3696C30.1994 18.4391 29.9763 18.529 29.7598 18.6384C29.5462 18.754 29.3407 18.89 29.1453 19.045C28.7729 19.3406 28.4987 19.7824 28.3701 20.2941C28.305 20.5516 28.2675 20.818 28.2585 21.0869V23.7183L28.3209 30.7724L28.4079 37.8287V37.9032L27.4909 45.1605L26.9086 49.9039L26.6325 45.1221L26.2336 38.1765L26.3962 37.7248L26.3867 37.7428C26.3784 37.7664 26.3752 37.792 26.3773 37.8174L26.3886 37.8445C26.4037 37.8688 26.4231 37.8888 26.4453 37.9032C26.4704 37.9214 26.4979 37.9344 26.5266 37.9416C26.5617 37.9491 26.5975 37.9491 26.6325 37.9416C26.6821 37.9356 26.7296 37.9146 26.7705 37.8806C26.7895 37.8636 26.8061 37.843 26.8197 37.8196C26.8329 37.7925 26.8292 37.7903 26.8292 37.7925C26.8292 37.7948 26.8197 37.7451 26.746 37.6909L26.9766 38.181L26.8292 44.6794L26.7176 49.6487L25.9008 44.7675L24.7569 37.9371V37.8377L24.7721 28.4255L24.8155 19.0134L25.2542 19.4967C24.0723 19.6048 22.8979 19.8093 21.7393 20.1088C20.5765 20.4251 19.4175 20.7526 18.336 21.2992C17.2535 21.8486 16.2333 22.559 15.2995 23.4134C14.37 24.2788 13.547 25.2961 12.8548 26.4356C11.4521 28.7382 10.5508 31.4216 10.2324 34.244C10.1624 34.9493 10.1472 35.6609 10.187 36.3695C10.215 37.0828 10.2876 37.7925 10.4045 38.4927C10.6619 39.8935 11.0012 41.2709 11.4198 42.6149Z" fill="#10295F"/>
<path d="M11.4785 42.5945C11.0427 41.2701 10.6968 39.9059 10.4443 38.5152C10.3857 38.1673 10.3176 37.815 10.2855 37.4581C10.2533 37.1012 10.2231 36.7466 10.2079 36.3874C10.1783 35.6698 10.1998 34.9504 10.2722 34.2371C10.3459 33.5243 10.4557 32.8175 10.6012 32.1207C10.6844 31.7751 10.7525 31.425 10.8508 31.0862L10.9907 30.5734L11.1476 30.0675C11.5734 28.7149 12.1455 27.4346 12.8493 26.2593C13.554 25.0791 14.3905 24.0198 15.3356 23.1106C16.2896 22.2134 17.3354 21.465 18.4477 20.8834C19.0056 20.5977 19.5777 20.3533 20.1607 20.1516C20.743 19.9506 21.3159 19.7721 21.9039 19.605C23.0782 19.2779 24.2705 19.0514 25.4717 18.9274L25.8177 18.8912V19.3091L25.8518 28.7213L25.8688 38.1357V38.0544L27.0316 45.5082L26.2847 45.5783L26.4398 38.4452L26.6288 38.8359C26.4996 38.7419 26.4014 38.5975 26.3509 38.4271C26.3096 38.2937 26.2935 38.151 26.3036 38.0092C26.3118 37.8601 26.3508 37.7158 26.4171 37.5891C26.4493 37.5126 26.4929 37.4437 26.5457 37.3858C26.6254 37.3152 26.7193 37.2708 26.8179 37.2571C26.9287 37.2452 27.0398 37.2753 27.1356 37.3429C27.2036 37.3925 27.2632 37.4568 27.3114 37.5326C27.387 37.6522 27.4375 37.7916 27.4589 37.9392C27.4809 38.0995 27.4645 38.2639 27.4116 38.4135C27.363 38.549 27.2886 38.6689 27.1942 38.7636L27.3246 38.4158L27.4948 45.7838L26.8122 45.7251L27.9467 38.068V38.1312L28.0639 21.8954V21.3849C28.0646 21.2049 28.0766 21.0252 28.0998 20.8473C28.1428 20.4847 28.2415 20.1348 28.391 19.8151C28.5427 19.4951 28.7472 19.2154 28.9922 18.9929C29.2317 18.7833 29.4921 18.6103 29.7674 18.4779C30.2972 18.2005 30.8535 18.0018 31.4237 17.8861C31.9909 17.7686 32.5449 17.6896 33.0951 17.5473C34.2019 17.2643 35.2695 16.7951 36.2658 16.1536C37.2763 15.5491 38.1557 14.6731 38.8353 13.5945C38.1856 14.7208 37.3236 15.6492 36.3188 16.305C35.3302 16.9741 34.268 17.4743 33.1632 17.7912C32.6073 17.9539 32.0401 18.0555 31.4918 18.1865C30.9468 18.3154 30.4172 18.5241 29.9149 18.8077C29.6664 18.9349 29.4326 19.0996 29.2191 19.2978C29.0158 19.4933 28.8479 19.7361 28.7257 20.0116C28.6049 20.2884 28.5274 20.5892 28.4969 20.8993C28.4792 21.0565 28.4709 21.215 28.4723 21.3736V21.8773L28.5876 38.1199V38.1831L27.5099 45.8629L26.9427 49.8902L26.8255 45.8064L26.6137 38.4406V38.2148L26.7517 38.0996L26.765 38.077V38.0905C26.7655 38.083 26.7655 38.0755 26.765 38.068C26.7728 38.0812 26.7832 38.0921 26.7952 38.0996C26.8131 38.1114 26.8322 38.1205 26.8519 38.1267C26.8764 38.1308 26.9012 38.1308 26.9257 38.1267C26.9486 38.125 26.971 38.1177 26.9915 38.1053C27.012 38.0928 27.0301 38.0755 27.0448 38.0544V38.077C27.042 38.0911 27.042 38.1058 27.0448 38.1199L27.0013 38.0747L27.1904 38.4655L27.0524 45.6009L26.9692 49.9602L26.3074 45.6686L25.1541 38.2012V38.1222L25.1692 28.7077L25.2032 19.2955L25.5511 19.6795C24.3774 19.7851 23.2112 19.9874 22.0609 20.2849C20.9079 20.5599 19.7769 20.9528 18.6803 21.4594C17.6019 21.999 16.5853 22.7004 15.6551 23.5465C14.715 24.4036 13.8789 25.4123 13.1707 26.5439C12.4739 27.6777 11.8967 28.9097 11.452 30.212L11.2857 30.6999L11.1363 31.1991C11.0323 31.5289 10.9586 31.8767 10.8697 32.2065C10.7077 32.8853 10.5814 33.5756 10.4916 34.2733C10.4043 34.9707 10.367 35.6757 10.38 36.3807C10.38 36.733 10.4046 37.0877 10.4311 37.4378C10.4575 37.7879 10.5142 38.1357 10.5653 38.4858C10.7803 39.8815 11.0857 41.2552 11.4785 42.5945Z" fill="#4D9EC8"/>
<path d="M35.199 17.2115C35.5283 17.1036 35.754 16.8367 35.7032 16.6153C35.6524 16.3939 35.3442 16.302 35.0149 16.4099C34.6856 16.5178 34.4599 16.7847 34.5107 17.0061C34.5616 17.2274 34.8697 17.3194 35.199 17.2115Z" fill="url(#paint0_linear_632_788)" stroke="white" stroke-width="0.4" stroke-miterlimit="10"/>
<path d="M38.8844 13.529C37.2427 13.046 35.5651 12.7578 33.8759 12.6684C33.0346 12.6278 32.1875 12.6165 31.3461 12.6459C30.507 12.6576 29.6697 12.7429 28.8409 12.9011C27.1788 13.1961 25.5441 13.6802 23.9591 14.3467C23.1698 14.6769 22.3982 15.0646 21.6487 15.5077C20.8963 15.9461 20.1641 16.4324 19.4554 16.9646C16.6401 19.0901 14.1709 21.9541 12.5032 25.4145C11.6789 27.1507 11.0785 29.0255 10.7222 30.9756C10.3816 32.939 10.298 34.9536 10.4745 36.9477V36.968L10.5161 37.4197L10.569 37.8896C10.605 38.2035 10.6466 38.5152 10.6938 38.8269C10.7411 39.1386 10.7921 39.4481 10.8507 39.7575C10.9094 40.067 10.985 40.39 11.0398 40.7017V40.6746C11.1136 40.9479 11.1797 41.2257 11.2648 41.4945C11.3499 41.7633 11.4369 42.0344 11.5314 42.2986C11.6259 42.5629 11.7205 42.8294 11.8301 43.0869C11.9398 43.3444 12.0532 43.5997 12.1686 43.8549C12.0419 43.6087 11.9096 43.367 11.7904 43.1118C11.6713 42.8565 11.5579 42.6013 11.4501 42.3415C11.3423 42.0818 11.2478 41.813 11.1533 41.5465C11.0587 41.2799 10.9793 41.0021 10.8942 40.7288V40.7017C10.8167 40.4013 10.7354 40.1144 10.6655 39.8095C10.5955 39.5046 10.5312 39.1906 10.4764 38.8789C10.4216 38.5672 10.3648 38.2532 10.3157 37.9393L10.2457 37.4649L10.2136 37.2278L10.1985 37.1103V37.0493C10.1961 37.023 10.1961 36.9965 10.1985 36.9703V36.9906C9.9626 34.9597 10.0015 32.8968 10.3138 30.8807C10.6397 28.8601 11.2313 26.9138 12.0665 25.1141C12.9027 23.3216 13.941 21.6747 15.1521 20.2194C17.5765 17.2972 20.5356 15.0874 23.7965 13.7639C25.417 13.1115 27.0888 12.6574 28.7861 12.4087C29.6333 12.2736 30.4879 12.2162 31.3424 12.237C32.1951 12.237 33.044 12.2799 33.8911 12.368C35.5855 12.5405 37.2595 12.9298 38.8844 13.529Z" fill="url(#paint1_linear_632_788)"/>
<path d="M38.7994 13.502C36.9211 13.1421 35.0198 12.9819 33.1178 13.0232C31.2238 13.0728 29.3387 13.3498 27.491 13.8499C25.6462 14.328 23.8562 15.0689 22.1592 16.0567C20.4703 17.0509 18.884 18.2766 17.4324 19.7091C16.706 20.422 16.0236 21.1964 15.3904 22.0265C14.7597 22.8596 14.1743 23.7401 13.6377 24.6625C13.1048 25.5842 12.6416 26.5608 12.2537 27.5808C11.8683 28.6029 11.5522 29.6604 11.3084 30.743C10.8303 32.928 10.6761 35.1961 10.8527 37.4447C10.9222 38.5734 11.0645 39.6941 11.2781 40.7967C11.5121 41.8977 11.8416 42.9666 12.2613 43.986C11.781 42.9957 11.4002 41.9411 11.1268 40.8441C10.8651 39.7415 10.6754 38.6163 10.5596 37.4786C10.4481 36.337 10.4196 35.186 10.4745 34.0385C10.5245 32.8866 10.6632 31.7426 10.8886 30.621C11.3347 28.3646 12.1166 26.2224 13.1972 24.2966C13.7414 23.347 14.3377 22.4416 14.982 21.5861C15.6296 20.7285 16.3285 19.9283 17.0732 19.1918C18.5623 17.7272 20.1922 16.4798 21.9285 15.4762C23.6699 14.4895 25.5082 13.7686 27.4003 13.3304C29.2812 12.8712 31.1982 12.6561 33.1178 12.6889C35.0294 12.7373 36.9324 13.0096 38.7994 13.502Z" fill="url(#paint2_linear_632_788)"/>
<path d="M38.8694 13.52C36.9833 13.0529 35.0645 12.8003 33.1386 12.7656C32.1805 12.7428 31.2221 12.7881 30.2685 12.9011C29.3152 13.0237 28.3683 13.21 27.4324 13.459C25.5616 13.929 23.7418 14.6519 22.0079 15.6138C21.1477 16.1016 20.3141 16.6538 19.5122 17.2672C18.714 17.8878 17.9487 18.5667 17.2206 19.3001C16.4889 20.0315 15.7944 20.8144 15.1408 21.6447C13.1663 24.1271 11.7553 27.171 11.0418 30.4876C10.8028 31.5899 10.6472 32.7155 10.5766 33.8509C10.4735 36.1383 10.6564 38.4313 11.1193 40.6542C11.3675 41.7654 11.7222 42.8386 12.1762 43.8526C11.6647 42.8685 11.2606 41.8104 10.9737 40.7039C10.6901 39.597 10.4845 38.4637 10.3592 37.3158C10.2239 36.1631 10.1727 34.9985 10.2061 33.8351C10.2515 32.6676 10.3876 31.5076 10.6126 30.3702C11.2864 26.9328 12.7128 23.7711 14.7457 21.2087C15.4114 20.3558 16.1192 19.551 16.8652 18.7987C17.6139 18.0498 18.4 17.3558 19.2191 16.7206C20.0418 16.0876 20.8989 15.5209 21.7848 15.0243C24.4622 13.6113 27.3177 12.7403 30.2344 12.4471C31.2043 12.3677 32.1773 12.3594 33.148 12.4222C34.1161 12.49 35.0804 12.6097 36.0352 12.7904C36.9908 12.9686 37.9371 13.2121 38.8694 13.52Z" fill="url(#paint3_linear_632_788)"/>
<path d="M8.67834 34.3862C8.92277 36.442 9.43305 38.4399 10.1909 40.3086C10.8232 41.8625 11.6298 43.3064 12.5884 44.6002C13.4033 45.6957 14.5131 46.9222 14.6965 46.746C14.8459 46.6037 14.4715 45.4608 13.9043 44.5663C13.5715 44.04 13.1972 43.6402 13.2974 43.4369C13.3522 43.3218 13.4997 43.3624 13.8646 43.2879C14.1161 43.2382 14.6757 43.1275 14.7192 42.9332C14.7929 42.5877 13.2539 41.8468 12.8644 41.639C11.5352 40.9185 9.90731 39.1386 8.67834 34.3862Z" fill="#060F34"/>
<path d="M8.67834 34.3817C8.97017 36.4297 9.52703 38.411 10.3289 40.2544C10.9987 41.7838 11.8403 43.1965 12.8304 44.4534C13.6717 45.5196 14.8118 46.7122 14.9915 46.5247C15.1389 46.3756 14.7362 45.2463 14.1444 44.3721C13.8003 43.8594 13.4146 43.4686 13.511 43.2586C13.5621 43.1411 13.7114 43.1773 14.0782 43.0892C14.3278 43.0327 14.8856 42.8994 14.9234 42.7052C14.9896 42.3573 13.4316 41.6707 13.0327 41.4764C11.6959 40.8124 10.0321 39.0889 8.67834 34.3817Z" fill="#10295F"/>
<path d="M8.67651 34.3772C9.0255 36.4106 9.63722 38.3668 10.4897 40.1754C11.2016 41.6778 12.0827 43.0565 13.1084 44.2728C13.9781 45.305 15.1503 46.4457 15.3243 46.256C15.468 46.1024 15.0331 44.9888 14.4186 44.1395C14.0594 43.6403 13.6623 43.2676 13.7531 43.0508C13.8023 42.9311 13.9422 42.9627 14.3203 42.8611C14.568 42.791 15.122 42.6352 15.1541 42.4409C15.2108 42.0908 13.6415 41.4674 13.235 41.289C11.8718 40.6836 10.1607 39.028 8.67651 34.3772Z" fill="#4D9EC8"/>
<path d="M53.44 19.66C53.9067 19.66 54.26 19.6333 54.5 19.58C54.7533 19.5133 54.9467 19.4533 55.08 19.4C55.2133 19.3333 55.34 19.3 55.46 19.3C55.54 19.3 55.5867 19.3067 55.6 19.32C55.6267 19.32 55.66 19.3333 55.7 19.36L56.22 22.94C56.1933 22.9667 56.1133 23 55.98 23.04C55.86 23.0667 55.7533 23.08 55.66 23.08C55.54 23.08 55.4733 23.0467 55.46 22.98C55.3933 22.5533 55.26 22.1533 55.06 21.78C54.86 21.4067 54.6133 21.1067 54.32 20.88C54.0267 20.64 53.7133 20.52 53.38 20.52H51.56V29.66C51.56 30.0733 51.5667 30.4333 51.58 30.74C51.5933 31.0467 51.64 31.3 51.72 31.5C51.76 31.58 51.86 31.6467 52.02 31.7C52.1933 31.7533 52.3733 31.7933 52.56 31.82C52.7467 31.8333 52.88 31.8467 52.96 31.86C53.0133 31.9267 53.0333 32.0467 53.02 32.22C53.02 32.3933 53 32.5133 52.96 32.58C52.5867 32.54 52.1333 32.5067 51.6 32.48C51.0667 32.4533 50.5933 32.44 50.18 32.44C49.7667 32.44 49.3 32.4533 48.78 32.48C48.26 32.5067 47.8067 32.54 47.42 32.58C47.38 32.5133 47.3533 32.3933 47.34 32.22C47.34 32.0467 47.3667 31.9267 47.42 31.86C47.5133 31.8467 47.6467 31.8333 47.82 31.82C48.0067 31.7933 48.1867 31.7533 48.36 31.7C48.5333 31.6467 48.6333 31.58 48.66 31.5C48.74 31.3 48.7867 31.0467 48.8 30.74C48.8133 30.4333 48.82 30.0733 48.82 29.66V20.52H47C46.6667 20.52 46.3533 20.64 46.06 20.88C45.7667 21.1067 45.52 21.4067 45.32 21.78C45.12 22.1533 44.9867 22.5533 44.92 22.98C44.9067 23.0467 44.84 23.08 44.72 23.08C44.6267 23.08 44.5133 23.0667 44.38 23.04C44.26 23 44.1867 22.9667 44.16 22.94L44.68 19.36C44.72 19.3333 44.7467 19.32 44.76 19.32C44.7867 19.3067 44.84 19.3 44.92 19.3C45.04 19.3 45.1667 19.3333 45.3 19.4C45.4333 19.4533 45.62 19.5133 45.86 19.58C46.1133 19.6333 46.4733 19.66 46.94 19.66H53.44ZM62.2238 23.76C62.4771 23.76 62.7104 23.7867 62.9238 23.84C63.1371 23.8933 63.3104 23.98 63.4437 24.1C63.4838 24.1533 63.5304 24.2733 63.5837 24.46C63.6371 24.6467 63.6638 24.8467 63.6638 25.06C63.6638 25.2733 63.6104 25.5 63.5038 25.74C63.4104 25.98 63.2771 26.1867 63.1038 26.36C62.9304 26.52 62.7304 26.6 62.5038 26.6C62.3304 26.6 62.1771 26.5467 62.0438 26.44C61.9104 26.32 61.7838 26.2133 61.6638 26.12C61.5571 26.0133 61.4504 25.92 61.3438 25.84C61.2504 25.7467 61.1171 25.7 60.9437 25.7C60.6771 25.7 60.4438 25.8067 60.2437 26.02C60.0571 26.22 59.9104 26.4467 59.8037 26.7C59.6971 26.94 59.6437 27.1333 59.6437 27.28V29.66C59.6437 30.02 59.6504 30.3667 59.6637 30.7C59.6771 31.0333 59.7238 31.3 59.8037 31.5C59.8438 31.58 59.9638 31.6467 60.1637 31.7C60.3638 31.7533 60.5704 31.7933 60.7838 31.82C61.0104 31.8333 61.1638 31.8467 61.2438 31.86C61.2971 31.9267 61.3171 32.0467 61.3038 32.22C61.3038 32.3933 61.2838 32.5133 61.2438 32.58C60.8704 32.54 60.3971 32.5067 59.8238 32.48C59.2637 32.4533 58.7771 32.44 58.3637 32.44C57.9504 32.44 57.4971 32.4533 57.0037 32.48C56.5237 32.5067 56.0904 32.54 55.7037 32.58C55.6637 32.5133 55.6371 32.3933 55.6237 32.22C55.6237 32.0467 55.6504 31.9267 55.7037 31.86C55.7971 31.8467 55.9304 31.8333 56.1037 31.82C56.2904 31.7933 56.4704 31.7533 56.6437 31.7C56.8171 31.6467 56.9171 31.58 56.9437 31.5C57.0237 31.3 57.0704 31.0467 57.0837 30.74C57.0971 30.4333 57.1037 30.0733 57.1037 29.66V27.42C57.1037 27.3533 57.0971 27.2133 57.0837 27C57.0837 26.7733 57.0704 26.5467 57.0437 26.32C57.0171 26.08 56.9771 25.9133 56.9237 25.82C56.8704 25.7133 56.7504 25.6333 56.5637 25.58C56.3904 25.5267 56.2171 25.4867 56.0437 25.46C55.8704 25.4333 55.7571 25.42 55.7037 25.42C55.6904 25.4067 55.6771 25.3533 55.6637 25.26C55.6504 25.1533 55.6504 25.0533 55.6637 24.96C55.6771 24.8667 55.6971 24.82 55.7237 24.82C56.2171 24.78 56.7037 24.7 57.1837 24.58C57.6771 24.46 58.1304 24.3267 58.5437 24.18C58.9571 24.0333 59.2837 23.9 59.5238 23.78C59.5904 23.7933 59.6637 23.8467 59.7437 23.94C59.8238 24.0333 59.8638 24.0933 59.8638 24.12C59.8504 24.1733 59.8238 24.3067 59.7837 24.52C59.7571 24.7333 59.7304 24.9533 59.7038 25.18C59.6771 25.4067 59.6637 25.5667 59.6637 25.66C59.6637 25.7133 59.6771 25.74 59.7038 25.74C59.7437 25.74 59.7704 25.7333 59.7837 25.72C59.9437 25.44 60.1304 25.1467 60.3437 24.84C60.5704 24.5333 60.8371 24.28 61.1438 24.08C61.4504 23.8667 61.8104 23.76 62.2238 23.76ZM66.9466 27.78C66.9466 28.46 67.0466 29.02 67.2466 29.46C67.4466 29.8867 67.6932 30.2133 67.9866 30.44C68.2799 30.6667 68.5799 30.8267 68.8866 30.92C69.2066 31 69.4732 31.04 69.6866 31.04C70.2599 31.04 70.7132 30.9333 71.0466 30.72C71.3799 30.4933 71.6532 30.2733 71.8666 30.06C71.9332 30.0733 71.9866 30.12 72.0266 30.2C72.0799 30.28 72.1066 30.3533 72.1066 30.42C72.1066 30.5933 72.0866 30.7133 72.0466 30.78C71.9266 30.9533 71.7066 31.1933 71.3866 31.5C71.0666 31.8067 70.6599 32.08 70.1666 32.32C69.6866 32.56 69.1332 32.68 68.5066 32.68C67.7866 32.68 67.1132 32.52 66.4866 32.2C65.8599 31.8667 65.3532 31.4 64.9666 30.8C64.5932 30.1867 64.4066 29.4533 64.4066 28.6C64.4066 27.9867 64.5266 27.3933 64.7666 26.82C65.0066 26.2333 65.3266 25.7133 65.7266 25.26C66.1399 24.7933 66.6066 24.4267 67.1266 24.16C67.6466 23.8933 68.1866 23.76 68.7466 23.76C69.3866 23.76 69.9266 23.86 70.3666 24.06C70.8066 24.26 71.1532 24.5133 71.4066 24.82C71.6732 25.1267 71.8666 25.4533 71.9866 25.8C72.1066 26.1333 72.1666 26.44 72.1666 26.72C72.1666 26.9333 72.1132 27.12 72.0066 27.28C71.9132 27.44 71.7932 27.5267 71.6466 27.54C71.2066 27.58 70.7132 27.62 70.1666 27.66C69.6199 27.6867 69.0666 27.7133 68.5066 27.74C67.9466 27.7533 67.4266 27.7667 66.9466 27.78ZM66.9666 27C67.0066 27 67.1332 27 67.3466 27C67.5732 26.9867 67.8266 26.9733 68.1066 26.96C68.3999 26.9333 68.6732 26.9133 68.9266 26.9C69.1799 26.8733 69.3666 26.8533 69.4866 26.84C69.6066 26.8267 69.6799 26.7867 69.7066 26.72C69.7332 26.64 69.7466 26.5733 69.7466 26.52C69.7466 26.2133 69.7066 25.9133 69.6266 25.62C69.5466 25.3267 69.4199 25.08 69.2466 24.88C69.0732 24.68 68.8399 24.58 68.5466 24.58C68.2532 24.58 68.0066 24.6733 67.8066 24.86C67.6066 25.0467 67.4399 25.2733 67.3066 25.54C67.1866 25.8067 67.0999 26.08 67.0466 26.36C66.9932 26.6267 66.9666 26.84 66.9666 27ZM80.2209 23.78C80.9676 23.78 81.5276 23.9533 81.9009 24.3C82.2876 24.6333 82.5476 25.1467 82.6809 25.84C82.8143 26.52 82.8809 27.3733 82.8809 28.4V29.66C82.8809 30.0733 82.8876 30.4333 82.9009 30.74C82.9143 31.0467 82.9609 31.3 83.0409 31.5C83.0809 31.58 83.1809 31.6467 83.3409 31.7C83.5143 31.7533 83.6943 31.7933 83.8809 31.82C84.0809 31.8333 84.2209 31.8467 84.3009 31.86C84.3543 31.9267 84.3743 32.0467 84.3609 32.22C84.3609 32.3933 84.3409 32.5133 84.3009 32.58C83.9276 32.54 83.4876 32.5067 82.9809 32.48C82.4876 32.4533 82.0343 32.44 81.6209 32.44C81.2076 32.44 80.7943 32.4533 80.3809 32.48C79.9676 32.5067 79.5676 32.54 79.1809 32.58C79.1409 32.5133 79.1143 32.3933 79.1009 32.22C79.1009 32.0467 79.1276 31.9267 79.1809 31.86C79.3143 31.8467 79.5009 31.82 79.7409 31.78C79.9943 31.7267 80.1476 31.6333 80.2009 31.5C80.2676 31.3267 80.3076 31.1067 80.3209 30.84C80.3343 30.5733 80.3409 30.2667 80.3409 29.92C80.3409 29.88 80.3409 29.84 80.3409 29.8C80.3409 29.7467 80.3409 29.7 80.3409 29.66V28.12C80.3409 27.6533 80.3009 27.2133 80.2209 26.8C80.1543 26.3733 80.0276 26.0333 79.8409 25.78C79.6543 25.5133 79.3876 25.38 79.0409 25.38C78.7876 25.38 78.5276 25.4467 78.2609 25.58C77.9943 25.7 77.7676 25.8467 77.5809 26.02C77.4076 26.18 77.3209 26.3267 77.3209 26.46V29.66C77.3209 30.02 77.3276 30.3667 77.3409 30.7C77.3543 31.0333 77.4009 31.3 77.4809 31.5C77.5209 31.58 77.6076 31.6467 77.7409 31.7C77.8876 31.7533 78.0409 31.7933 78.2009 31.82C78.3743 31.8333 78.5009 31.8467 78.5809 31.86C78.6343 31.9267 78.6543 32.0467 78.6409 32.22C78.6409 32.3933 78.6209 32.5133 78.5809 32.58C78.2076 32.54 77.7943 32.5067 77.3409 32.48C76.8876 32.4533 76.4543 32.44 76.0409 32.44C75.6276 32.44 75.1743 32.4533 74.6809 32.48C74.2009 32.5067 73.7676 32.54 73.3809 32.58C73.3409 32.5133 73.3143 32.3933 73.3009 32.22C73.3009 32.0467 73.3276 31.9267 73.3809 31.86C73.4743 31.8467 73.6076 31.8333 73.7809 31.82C73.9676 31.7933 74.1476 31.7533 74.3209 31.7C74.4943 31.6467 74.5943 31.58 74.6209 31.5C74.7009 31.3 74.7476 31.0467 74.7609 30.74C74.7743 30.4333 74.7809 30.0733 74.7809 29.66V27.42C74.7809 27.3533 74.7743 27.2133 74.7609 27C74.7609 26.7733 74.7476 26.5467 74.7209 26.32C74.6943 26.08 74.6543 25.9133 74.6009 25.82C74.5476 25.7133 74.4276 25.6333 74.2409 25.58C74.0676 25.5267 73.8943 25.4867 73.7209 25.46C73.5476 25.4333 73.4343 25.42 73.3809 25.42C73.3676 25.4067 73.3543 25.3533 73.3409 25.26C73.3276 25.1533 73.3276 25.0533 73.3409 24.96C73.3543 24.8667 73.3743 24.82 73.4009 24.82C73.8943 24.78 74.3809 24.7 74.8609 24.58C75.3543 24.46 75.8076 24.3267 76.2209 24.18C76.6343 24.0333 76.9609 23.9 77.2009 23.78C77.2676 23.78 77.3409 23.8267 77.4209 23.92C77.5009 24 77.5409 24.0667 77.5409 24.12C77.5276 24.1733 77.5009 24.2933 77.4609 24.48C77.4343 24.6533 77.4076 24.82 77.3809 24.98C77.3543 25.14 77.3409 25.2267 77.3409 25.24C77.3409 25.3067 77.3476 25.3467 77.3609 25.36C77.3876 25.36 77.4343 25.3267 77.5009 25.26C77.6876 25.0467 77.9343 24.8267 78.2409 24.6C78.5609 24.3733 78.8943 24.18 79.2409 24.02C79.6009 23.86 79.9276 23.78 80.2209 23.78ZM90.2116 23.78C90.4249 23.78 90.5849 23.7867 90.6916 23.8C90.8116 23.8 90.9116 23.8067 90.9916 23.82C91.0316 23.82 91.0582 23.7667 91.0716 23.66C91.0849 23.5533 91.0916 23.46 91.0916 23.38V21.6C91.0916 21.4133 91.0849 21.2533 91.0716 21.12C91.0582 20.9867 91.0182 20.8333 90.9516 20.66C90.9249 20.58 90.8316 20.5133 90.6716 20.46C90.5116 20.4067 90.3449 20.3733 90.1716 20.36C89.9982 20.3333 89.8716 20.32 89.7916 20.32C89.7516 20.32 89.7249 20.2267 89.7116 20.04C89.7116 19.84 89.7382 19.72 89.7916 19.68C90.5249 19.6133 91.1649 19.52 91.7116 19.4C92.2716 19.28 92.7116 19.1733 93.0316 19.08C93.3649 18.9733 93.5382 18.92 93.5516 18.92C93.6182 18.9333 93.6782 18.98 93.7316 19.06C93.7982 19.14 93.8382 19.2067 93.8516 19.26C93.8516 19.26 93.8116 19.4533 93.7316 19.84C93.6649 20.2267 93.6316 20.6933 93.6316 21.24V30.4C93.6316 30.5467 93.6382 30.68 93.6516 30.8C93.6649 30.92 93.7182 31.0333 93.8116 31.14C93.8916 31.2333 94.0249 31.2867 94.2116 31.3C94.3982 31.3133 94.5449 31.32 94.6516 31.32C94.6649 31.32 94.6782 31.32 94.6916 31.32C94.7316 31.36 94.7516 31.4467 94.7516 31.58C94.7516 31.7133 94.7116 31.84 94.6316 31.96C94.3382 31.9867 94.0116 32.04 93.6516 32.12C93.3049 32.1867 92.9582 32.26 92.6116 32.34C92.2782 32.42 91.9849 32.4867 91.7316 32.54C91.4916 32.6067 91.3382 32.64 91.2716 32.64C91.1516 32.64 91.0916 32.48 91.0916 32.16V31.86C91.0916 31.8333 91.0849 31.8067 91.0716 31.78C91.0716 31.74 91.0582 31.7333 91.0316 31.76C90.9249 31.8267 90.7449 31.9333 90.4916 32.08C90.2516 32.2267 89.9649 32.36 89.6316 32.48C89.3116 32.6 88.9782 32.66 88.6316 32.66C88.0049 32.66 87.4182 32.48 86.8716 32.12C86.3382 31.76 85.9049 31.2733 85.5716 30.66C85.2516 30.0467 85.0916 29.36 85.0916 28.6C85.0916 27.7733 85.2716 27.06 85.6316 26.46C85.9916 25.8467 86.4449 25.3467 86.9916 24.96C87.5382 24.56 88.0982 24.2667 88.6716 24.08C89.2582 23.88 89.7716 23.78 90.2116 23.78ZM89.5716 24.78C89.1582 24.78 88.8249 24.92 88.5716 25.2C88.3316 25.48 88.1516 25.8467 88.0316 26.3C87.9249 26.7533 87.8716 27.24 87.8716 27.76C87.8716 28.8267 88.0449 29.7 88.3916 30.38C88.7516 31.06 89.2382 31.4 89.8516 31.4C90.0382 31.4 90.2249 31.36 90.4116 31.28C90.5982 31.1867 90.7582 31.0867 90.8916 30.98C91.0249 30.86 91.0916 30.76 91.0916 30.68V25.66C91.0916 25.4733 90.9382 25.28 90.6316 25.08C90.3382 24.88 89.9849 24.78 89.5716 24.78ZM98.3452 27.78C98.3452 28.46 98.4452 29.02 98.6452 29.46C98.8452 29.8867 99.0918 30.2133 99.3852 30.44C99.6785 30.6667 99.9785 30.8267 100.285 30.92C100.605 31 100.872 31.04 101.085 31.04C101.658 31.04 102.112 30.9333 102.445 30.72C102.778 30.4933 103.052 30.2733 103.265 30.06C103.332 30.0733 103.385 30.12 103.425 30.2C103.478 30.28 103.505 30.3533 103.505 30.42C103.505 30.5933 103.485 30.7133 103.445 30.78C103.325 30.9533 103.105 31.1933 102.785 31.5C102.465 31.8067 102.058 32.08 101.565 32.32C101.085 32.56 100.532 32.68 99.9052 32.68C99.1852 32.68 98.5118 32.52 97.8852 32.2C97.2585 31.8667 96.7518 31.4 96.3652 30.8C95.9918 30.1867 95.8052 29.4533 95.8052 28.6C95.8052 27.9867 95.9252 27.3933 96.1652 26.82C96.4052 26.2333 96.7252 25.7133 97.1252 25.26C97.5385 24.7933 98.0052 24.4267 98.5252 24.16C99.0452 23.8933 99.5852 23.76 100.145 23.76C100.785 23.76 101.325 23.86 101.765 24.06C102.205 24.26 102.552 24.5133 102.805 24.82C103.072 25.1267 103.265 25.4533 103.385 25.8C103.505 26.1333 103.565 26.44 103.565 26.72C103.565 26.9333 103.512 27.12 103.405 27.28C103.312 27.44 103.192 27.5267 103.045 27.54C102.605 27.58 102.112 27.62 101.565 27.66C101.018 27.6867 100.465 27.7133 99.9052 27.74C99.3452 27.7533 98.8252 27.7667 98.3452 27.78ZM98.3652 27C98.4052 27 98.5318 27 98.7452 27C98.9718 26.9867 99.2252 26.9733 99.5052 26.96C99.7985 26.9333 100.072 26.9133 100.325 26.9C100.578 26.8733 100.765 26.8533 100.885 26.84C101.005 26.8267 101.078 26.7867 101.105 26.72C101.132 26.64 101.145 26.5733 101.145 26.52C101.145 26.2133 101.105 25.9133 101.025 25.62C100.945 25.3267 100.818 25.08 100.645 24.88C100.472 24.68 100.238 24.58 99.9452 24.58C99.6518 24.58 99.4052 24.6733 99.2052 24.86C99.0052 25.0467 98.8385 25.2733 98.7052 25.54C98.5852 25.8067 98.4985 26.08 98.4452 26.36C98.3918 26.6267 98.3652 26.84 98.3652 27ZM111.62 23.78C112.246 23.78 112.746 23.9067 113.12 24.16C113.506 24.4 113.813 24.8333 114.04 25.46C114.333 25.18 114.666 24.9133 115.04 24.66C115.426 24.3933 115.813 24.18 116.2 24.02C116.6 23.86 116.946 23.78 117.24 23.78C117.986 23.78 118.546 23.9533 118.92 24.3C119.306 24.6333 119.566 25.1467 119.7 25.84C119.833 26.52 119.9 27.3733 119.9 28.4V29.66C119.9 29.7 119.9 29.7467 119.9 29.8C119.9 29.84 119.9 29.88 119.9 29.92C119.9 30.2667 119.906 30.5733 119.92 30.84C119.933 31.1067 119.973 31.3267 120.04 31.5C120.08 31.58 120.18 31.6467 120.34 31.7C120.513 31.7533 120.693 31.7933 120.88 31.82C121.08 31.8333 121.22 31.8467 121.3 31.86C121.353 31.9267 121.373 32.0467 121.36 32.22C121.36 32.3933 121.34 32.5133 121.3 32.58C120.926 32.54 120.486 32.5067 119.98 32.48C119.486 32.4533 119.033 32.44 118.62 32.44C118.206 32.44 117.793 32.4533 117.38 32.48C116.966 32.5067 116.566 32.54 116.18 32.58C116.14 32.5133 116.113 32.3933 116.1 32.22C116.1 32.0467 116.126 31.9267 116.18 31.86C116.313 31.8467 116.5 31.82 116.74 31.78C116.993 31.7267 117.146 31.6333 117.2 31.5C117.28 31.3 117.326 31.0467 117.34 30.74C117.353 30.4333 117.36 30.0733 117.36 29.66V28.12C117.36 27.6533 117.32 27.2133 117.24 26.8C117.173 26.3733 117.04 26.0333 116.84 25.78C116.653 25.5133 116.386 25.38 116.04 25.38C115.786 25.38 115.513 25.44 115.22 25.56C114.94 25.68 114.7 25.8267 114.5 26C114.3 26.16 114.2 26.3067 114.2 26.44V26.56C114.226 26.8267 114.246 27.1133 114.26 27.42C114.273 27.7267 114.28 28.0533 114.28 28.4V29.66C114.28 30.0733 114.286 30.4333 114.3 30.74C114.313 31.0467 114.36 31.3 114.44 31.5C114.48 31.58 114.58 31.6467 114.74 31.7C114.9 31.7533 115.073 31.7933 115.26 31.82C115.446 31.8333 115.58 31.8467 115.66 31.86C115.713 31.9267 115.733 32.0467 115.72 32.22C115.72 32.3933 115.7 32.5133 115.66 32.58C115.286 32.54 114.853 32.5067 114.36 32.48C113.88 32.4533 113.433 32.44 113.02 32.44C112.606 32.44 112.186 32.4533 111.76 32.48C111.333 32.5067 110.926 32.54 110.54 32.58C110.5 32.5133 110.473 32.3933 110.46 32.22C110.46 32.0467 110.486 31.9267 110.54 31.86C110.673 31.8467 110.866 31.82 111.12 31.78C111.386 31.7267 111.546 31.6333 111.6 31.5C111.666 31.3267 111.706 31.1067 111.72 30.84C111.733 30.5733 111.74 30.2667 111.74 29.92C111.74 29.88 111.74 29.84 111.74 29.8C111.74 29.7467 111.74 29.7 111.74 29.66V28.12C111.74 27.6533 111.7 27.2133 111.62 26.8C111.553 26.3733 111.426 26.0333 111.24 25.78C111.053 25.5133 110.786 25.38 110.44 25.38C110.186 25.38 109.926 25.4467 109.66 25.58C109.393 25.7 109.166 25.8467 108.98 26.02C108.806 26.18 108.72 26.3267 108.72 26.46V29.66C108.72 30.02 108.726 30.3667 108.74 30.7C108.753 31.0333 108.8 31.3 108.88 31.5C108.92 31.58 109.006 31.6467 109.14 31.7C109.286 31.7533 109.44 31.7933 109.6 31.82C109.773 31.8333 109.9 31.8467 109.98 31.86C110.033 31.9267 110.053 32.0467 110.04 32.22C110.04 32.3933 110.02 32.5133 109.98 32.58C109.606 32.54 109.193 32.5067 108.74 32.48C108.286 32.4533 107.853 32.44 107.44 32.44C107.026 32.44 106.573 32.4533 106.08 32.48C105.6 32.5067 105.166 32.54 104.78 32.58C104.74 32.5133 104.713 32.3933 104.7 32.22C104.7 32.0467 104.726 31.9267 104.78 31.86C104.873 31.8467 105.006 31.8333 105.18 31.82C105.366 31.7933 105.546 31.7533 105.72 31.7C105.893 31.6467 105.993 31.58 106.02 31.5C106.1 31.3 106.146 31.0467 106.16 30.74C106.173 30.4333 106.18 30.0733 106.18 29.66V27.42C106.18 27.3533 106.173 27.2133 106.16 27C106.16 26.7733 106.146 26.5467 106.12 26.32C106.093 26.08 106.053 25.9133 106 25.82C105.946 25.7133 105.826 25.6333 105.64 25.58C105.466 25.5267 105.293 25.4867 105.12 25.46C104.946 25.4333 104.833 25.42 104.78 25.42C104.766 25.4067 104.753 25.3533 104.74 25.26C104.726 25.1533 104.726 25.0533 104.74 24.96C104.753 24.8667 104.773 24.82 104.8 24.82C105.293 24.78 105.78 24.7 106.26 24.58C106.753 24.46 107.206 24.3267 107.62 24.18C108.033 24.0333 108.36 23.9 108.6 23.78C108.666 23.7933 108.74 23.8467 108.82 23.94C108.9 24.0333 108.94 24.0933 108.94 24.12C108.926 24.1733 108.9 24.2933 108.86 24.48C108.82 24.6533 108.786 24.82 108.76 24.98C108.746 25.14 108.74 25.2267 108.74 25.24C108.74 25.3067 108.746 25.3467 108.76 25.36C108.786 25.36 108.833 25.3267 108.9 25.26C109.086 25.0467 109.333 24.8267 109.64 24.6C109.96 24.3733 110.293 24.18 110.64 24.02C111 23.86 111.326 23.78 111.62 23.78ZM123.627 23.98C124.041 23.98 124.494 23.9667 124.987 23.94C125.481 23.9 125.847 23.8667 126.087 23.84C126.141 23.8933 126.167 24.0133 126.167 24.2C126.167 24.3867 126.141 24.5133 126.087 24.58C126.007 24.58 125.874 24.6 125.687 24.64C125.501 24.68 125.327 24.74 125.167 24.82C125.007 24.8867 124.927 24.98 124.927 25.1C124.927 25.1267 124.927 25.1733 124.927 25.24C124.941 25.2933 124.954 25.3467 124.967 25.4C125.141 25.7333 125.341 26.12 125.567 26.56C125.794 27 126.014 27.4267 126.227 27.84C126.454 28.24 126.634 28.5733 126.767 28.84C126.914 29.1067 126.987 29.24 126.987 29.24C126.987 29.24 127.034 29.1333 127.127 28.92C127.234 28.6933 127.361 28.4133 127.507 28.08C127.667 27.7333 127.834 27.36 128.007 26.96C128.194 26.56 128.367 26.18 128.527 25.82C128.581 25.7133 128.627 25.5933 128.667 25.46C128.707 25.3267 128.727 25.2067 128.727 25.1C128.727 24.94 128.621 24.8267 128.407 24.76C128.207 24.68 127.994 24.6333 127.767 24.62C127.541 24.5933 127.401 24.58 127.347 24.58C127.294 24.5267 127.267 24.4067 127.267 24.22C127.267 24.0333 127.287 23.9067 127.327 23.84C127.621 23.88 127.941 23.9133 128.287 23.94C128.647 23.9667 129.014 23.98 129.387 23.98C129.801 23.98 130.201 23.96 130.587 23.92C130.987 23.88 131.261 23.8533 131.407 23.84C131.447 23.8933 131.467 24.0133 131.467 24.2C131.481 24.3867 131.461 24.5133 131.407 24.58C131.327 24.58 131.174 24.5933 130.947 24.62C130.734 24.6467 130.514 24.7067 130.287 24.8C130.074 24.8933 129.921 25.0333 129.827 25.22C129.827 25.22 129.754 25.3733 129.607 25.68C129.474 25.9733 129.287 26.3733 129.047 26.88C128.807 27.3733 128.547 27.92 128.267 28.52C127.987 29.12 127.701 29.7267 127.407 30.34C127.114 30.94 126.847 31.5 126.607 32.02C126.314 32.6467 126.054 33.1933 125.827 33.66C125.614 34.14 125.301 34.6333 124.887 35.14C124.381 35.78 123.914 36.2067 123.487 36.42C123.074 36.6467 122.714 36.76 122.407 36.76C121.994 36.76 121.674 36.6467 121.447 36.42C121.221 36.2067 121.107 35.9733 121.107 35.72C121.107 35.4933 121.147 35.3067 121.227 35.16C121.307 35.0133 121.414 34.8933 121.547 34.8C122.067 34.8 122.514 34.76 122.887 34.68C123.274 34.6133 123.614 34.4733 123.907 34.26C124.214 34.0467 124.501 33.72 124.767 33.28C124.954 32.9867 125.081 32.7533 125.147 32.58C125.214 32.42 125.314 32.1933 125.447 31.9C125.287 31.58 125.074 31.1533 124.807 30.62C124.541 30.0733 124.254 29.5 123.947 28.9C123.654 28.2867 123.374 27.7133 123.107 27.18C122.841 26.6333 122.621 26.1867 122.447 25.84C122.287 25.4933 122.207 25.32 122.207 25.32C122.127 25.12 121.994 24.9667 121.807 24.86C121.634 24.7533 121.467 24.68 121.307 24.64C121.147 24.6 121.041 24.58 120.987 24.58C120.934 24.5 120.914 24.3733 120.927 24.2C120.927 24.0133 120.947 23.8933 120.987 23.84C121.161 23.8533 121.407 23.8733 121.727 23.9C122.047 23.9267 122.381 23.9467 122.727 23.96C123.074 23.9733 123.374 23.98 123.627 23.98Z" fill="url(#paint4_linear_632_788)"/>
<defs>
<linearGradient id="paint0_linear_632_788" x1="34.7159" y1="15.2584" x2="35.929" y2="15.2415" gradientUnits="userSpaceOnUse">
<stop stop-color="#4D9EC8"/>
<stop offset="0.32" stop-color="#2F6296"/>
<stop offset="0.68" stop-color="#10295F"/>
<stop offset="1" stop-color="#060F34"/>
</linearGradient>
<linearGradient id="paint1_linear_632_788" x1="38.9601" y1="28.046" x2="9.9243" y2="28.046" gradientUnits="userSpaceOnUse">
<stop stop-color="white"/>
<stop offset="0.52" stop-color="#10295F"/>
</linearGradient>
<linearGradient id="paint2_linear_632_788" x1="38.8524" y1="28.3374" x2="10.3365" y2="28.3374" gradientUnits="userSpaceOnUse">
<stop stop-color="white"/>
<stop offset="0.54" stop-color="#4D9EC8"/>
</linearGradient>
<linearGradient id="paint3_linear_632_788" x1="38.9355" y1="28.1227" x2="10.0813" y2="28.1227" gradientUnits="userSpaceOnUse">
<stop stop-color="white"/>
<stop offset="0.48" stop-color="#376799"/>
<stop offset="1" stop-color="#2F6296"/>
</linearGradient>
<linearGradient id="paint4_linear_632_788" x1="44" y1="27.9999" x2="132" y2="27.9999" gradientUnits="userSpaceOnUse">
<stop stop-color="#4799E9"/>
<stop offset="0.506" stop-color="#56C6DB"/>
<stop offset="1" stop-color="#65F4CD"/>
</linearGradient>
</defs>
</svg>
